<svg xmlns="http://www.w3.org/2000/svg" width="200" height="100"><g stroke-width="3.8" fill="none" stroke-linecap="round" stroke-linejoin="round"><path d="M3.7 1.9S2.3 20.4 2 28c.7 3.8 9.3 5.5 8.8 7.4.2 28.4-2 35.6-2.2 59.4 1.3 3.2 6.5 3.2 6.5 3.2" stroke="#000"/><path d="M11 2v19.2" stroke="#999"/><path d="M26.2 1.9S27.6 20.4 28 28c-.7 3.8-9.2 5.5-8.8 7.4-.2 28.4 2 35.6 2.3 59.4-1.4 3.2-6.5 3.2-6.5 3.2" stroke="#000"/><path d="M18.9 2v19.2" stroke="#999"/></g><g stroke-width="3.8" fill="none" stroke-linecap="round" stroke-linejoin="round"><path d="M173.8 1.9s-1.5 18.5-1.9 26.2c.8 3.8 9.3 5.5 8.9 7.4.2 28.4-2.1 35.6-2.3 59.4 1.4 3.2 6.5 3.2 6.5 3.2" stroke="#000"/><path d="M181 2v19.2" stroke="#999"/><path d="M196.2 1.9s1.5 18.5 1.9 26.2c-.8 3.8-9.3 5.5-8.8 7.4-.3 28.4 2 35.6 2.2 59.4-1.4 3.2-6.5 3.2-6.5 3.2" stroke="#000"/><path d="M189 2v19.2" stroke="#999"/></g><g stroke-width="3.8" fill="none" stroke-linecap="round" stroke-linejoin="round"><path d="M131.3 1.9s-1.5 18.5-1.9 26.2c.8 3.8 9.3 5.5 8.8 7.4.3 28.4-2 35.6-2.2 59.4 1.4 3.2 6.5 3.2 6.5 3.2" stroke="#000"/><path d="M138.6 2v19.2" stroke="#999"/><path d="M153.7 1.9s1.5 18.5 1.9 26.2c-.8 3.8-9.3 5.5-8.8 7.4-.3 28.4 2 35.6 2.2 59.4-1.4 3.2-6.5 3.2-6.5 3.2" stroke="#000"/><path d="M146.4 2v19.2" stroke="#999"/></g><g stroke-width="3.8" fill="none" stroke-linecap="round" stroke-linejoin="round"><path d="M88.7 1.9S87.3 20.4 87 28c.7 3.8 9.3 5.5 8.8 7.4.3 28.4-2 35.6-2.2 59.4 1.3 3.2 6.5 3.2 6.5 3.2" stroke="#000"/><path d="M96 2v19.2" stroke="#999"/><path d="M111.2 1.9s1.5 18.5 1.9 26.2c-.8 3.8-9.3 5.5-8.9 7.4-.2 28.4 2.1 35.6 2.3 59.4-1.4 3.2-6.5 3.2-6.5 3.2" stroke="#000"/><path d="M104 2v19.2" stroke="#999"/></g><g stroke-width="3.8" fill="none" stroke-linecap="round" stroke-linejoin="round"><path d="M46.2 1.9S44.8 20.4 44.4 28c.7 3.8 9.3 5.5 8.8 7.4.2 28.4-2 35.6-2.2 59.4 1.3 3.2 6.5 3.2 6.5 3.2" stroke="#000"/><path d="M53.5 2v19.2" stroke="#999"/><path d="M68.7 1.9s1.5 18.5 1.8 26.2c-.7 3.8-9.2 5.5-8.8 7.4-.2 28.4 2 35.6 2.3 59.4-1.4 3.2-6.5 3.2-6.5 3.2" stroke="#000"/><path d="M61.4 2v19.2" stroke="#999"/></g></svg>
